HIERARCHY
ROOT Hips
{
	OFFSET -0.001795 -0.223333 0.028219
	CHANNELS 6 Xposition Yposition Zposition Zrotation Yrotation Xrotation 
	JOINT LeftUpLeg
	{
		OFFSET 0.069520 -0.091406 -0.006815
		CHANNELS 3 Zrotation Yrotation Xrotation
		JOINT LeftLeg
		{
			OFFSET 0.034277 -0.375199 -0.004496
			CHANNELS 3 Zrotation Yrotation Xrotation
			JOINT LeftFoot
			{
				OFFSET -0.013596 -0.397961 -0.043693
				CHANNELS 3 Zrotation Yrotation Xrotation
				JOINT LeftToe
				{
					OFFSET 0.026358 -0.055791 0.119288
					CHANNELS 3 Zrotation Yrotation Xrotation
					End Site
					{
						OFFSET 0.000000 0.000000 0.000000
					}
				}
			}
		}
	}
	JOINT RightUpLeg
	{
		OFFSET -0.067670 -0.090522 -0.004320
		CHANNELS 3 Zrotation Yrotation Xrotation
		JOINT RightLeg
		{
			OFFSET -0.038290 -0.382569 -0.008850
			CHANNELS 3 Zrotation Yrotation Xrotation
			JOINT RightFoot
			{
				OFFSET 0.015774 -0.398415 -0.042312
				CHANNELS 3 Zrotation Yrotation Xrotation
				JOINT RightToe
				{
					OFFSET -0.025372 -0.048144 0.123348
					CHANNELS 3 Zrotation Yrotation Xrotation
					End Site
					{
						OFFSET 0.000000 0.000000 0.000000
					}
				}
			}
		}
	}
	JOINT Spine
	{
		OFFSET -0.002533 0.108963 -0.026696
		CHANNELS 3 Zrotation Yrotation Xrotation
		JOINT Spine1
		{
			OFFSET 0.005487 0.135180 0.001092
			CHANNELS 3 Zrotation Yrotation Xrotation
			JOINT Spine2
			{
				OFFSET 0.001457 0.052922 0.025425
				CHANNELS 3 Zrotation Yrotation Xrotation
				JOINT Neck
				{
					OFFSET -0.002778 0.213870 -0.042857
					CHANNELS 3 Zrotation Yrotation Xrotation
					JOINT Head
					{
						OFFSET 0.005152 0.064970 0.051349
						CHANNELS 3 Zrotation Yrotation Xrotation
						End Site
						{
							OFFSET 0.000000 0.000000 0.000000
						}
					}
				}
				JOINT LeftShoulder
				{
					OFFSET 0.078845 0.121749 -0.034090
					CHANNELS 3 Zrotation Yrotation Xrotation
					JOINT LeftArm
					{
						OFFSET 0.090977 0.030469 -0.008868
						CHANNELS 3 Zrotation Yrotation Xrotation
						JOINT LeftForeArm
						{
							OFFSET 0.259612 -0.012772 -0.027456
							CHANNELS 3 Zrotation Yrotation Xrotation
							JOINT LeftHand
							{
								OFFSET 0.249234 0.008986 -0.001171
								CHANNELS 3 Zrotation Yrotation Xrotation
								End Site
								{
									OFFSET 0.000000 0.000000 0.000000
								}
							}
						}
					}
				}
				JOINT RightShoulder
				{
					OFFSET -0.081759 0.118833 -0.038615
					CHANNELS 3 Zrotation Yrotation Xrotation
					JOINT RightArm
					{
						OFFSET -0.096012 0.032551 -0.009143
						CHANNELS 3 Zrotation Yrotation Xrotation
						JOINT RightForeArm
						{
							OFFSET -0.253742 -0.013329 -0.021401
							CHANNELS 3 Zrotation Yrotation Xrotation
							JOINT RightHand
							{
								OFFSET -0.255298 0.007772 -0.005559
								CHANNELS 3 Zrotation Yrotation Xrotation
								End Site
								{
									OFFSET 0.000000 0.000000 0.000000
								}
							}
						}
					}
				}
			}
		}
	}
}
MOTION
Frames: 5
Frame Time: 0.050000
0.000000 0.945349 0.000000 1.989996 -0.420227 -46.087492 2.841466 2.720327 45.344634 4.806986 -0.737768 2.313548 6.584331 16.173485 17.710172 0.000000 0.000000 0.000000 -8.612861 -1.624053 49.944299 -3.914749 0.345954 -1.078304 0.425077 -3.389821 8.524585 0.000000 0.000000 0.000000 -1.530663 -5.088314 114.906100 -12.475893 -1.835113 -90.370693 -1.026997 -1.041643 40.129192 9.026301 -6.986620 -21.073421 0.000000 0.000000 0.000000 -16.096357 -1.242213 1.759293 -55.961478 -1.805192 -11.973365 -6.142538 -39.517941 6.294706 0.000000 0.000000 0.000000 24.183339 -9.155820 -6.691336 55.644847 -0.753463 -11.665763 10.283242 45.699423 8.417973 0.000000 0.000000 0.000000 
0.005472 0.945746 0.007287 1.678606 -1.240711 -46.692899 3.545179 2.668634 47.573499 4.484770 -0.595505 0.972353 5.991862 15.230485 17.067722 0.000000 0.000000 0.000000 -8.924993 -1.389368 51.125464 -4.052704 0.305397 -1.730311 1.421449 -1.746532 9.398846 0.000000 0.000000 0.000000 -1.579702 -4.649044 114.733948 -11.111425 -1.545803 -90.394598 -1.007257 0.813429 39.918052 8.756382 -6.009475 -22.857356 0.000000 0.000000 0.000000 -15.723701 -0.179195 0.916804 -56.116617 -0.858644 -12.521209 -6.456429 -37.092956 5.839220 0.000000 0.000000 0.000000 24.027577 -9.283821 -6.114292 56.984586 -1.168241 -12.236228 8.610808 44.377318 7.837807 0.000000 0.000000 0.000000 
0.011990 0.945336 0.014564 2.033836 0.709591 -46.255714 2.639017 2.688226 47.595974 4.478778 -0.573252 0.763692 4.945142 13.618246 15.777947 0.000000 0.000000 0.000000 -10.012675 -1.332452 51.439009 -3.742322 0.301083 -1.476367 0.524068 -3.319646 8.991946 0.000000 0.000000 0.000000 -2.223094 -4.790580 113.356261 -13.221468 -2.006385 -93.372222 -1.459433 -2.112243 44.467207 9.156804 -7.049776 -25.021669 0.000000 0.000000 0.000000 -16.649207 -0.247883 1.802086 -56.470555 -2.336059 -12.689810 -3.442894 -34.895181 4.805524 0.000000 0.000000 0.000000 26.209700 -9.055016 -7.207076 54.439469 -1.284443 -12.384331 8.654464 42.086399 7.082830 0.000000 0.000000 0.000000 
0.019402 0.944973 0.022125 2.189120 1.198494 -46.290983 2.074267 2.854808 48.402057 4.295889 -0.511619 0.248011 4.945669 13.568146 15.332443 0.000000 0.000000 0.000000 -10.865193 -1.079149 51.617147 -3.994880 0.339688 -1.313801 0.853028 -2.990425 9.894944 0.000000 0.000000 0.000000 -2.615799 -4.520978 112.790487 -13.423723 -2.070000 -94.905252 -1.796044 -2.486155 46.695330 9.031984 -7.158345 -25.342590 0.000000 0.000000 0.000000 -17.461726 0.080725 1.882636 -56.024768 -2.208169 -13.107834 -2.110242 -34.202393 4.358154 0.000000 0.000000 0.000000 26.117496 -9.506786 -7.568579 54.707489 -1.794415 -12.991748 9.452382 40.568645 7.134257 0.000000 0.000000 0.000000 
0.027275 0.944623 0.029046 1.760000 0.095282 -46.402701 2.550271 2.895124 49.052683 3.771692 -0.460404 0.361478 5.418779 14.197106 14.965437 0.000000 0.000000 0.000000 -10.620277 -0.950240 51.409438 -4.606032 0.466387 -0.491924 1.449030 -1.894396 10.051796 0.000000 0.000000 0.000000 -2.757837 -3.730109 112.665548 -11.718981 -1.800638 -95.473715 -1.064223 -0.686895 46.891199 9.438369 -7.069935 -25.168177 0.000000 0.000000 0.000000 -18.279426 -0.065641 1.668394 -56.127399 -1.458365 -13.582240 -0.832972 -32.580204 3.632194 0.000000 0.000000 0.000000 26.358864 -9.774009 -7.065834 54.070716 -1.886844 -13.163911 9.033141 39.434963 6.941831 0.000000 0.000000 0.000000 
